<svg width="112" height="30" viewBox="0 0 112 30" fill="none" xmlns="http://www.w3.org/2000/svg">
<path fill-rule="evenodd" clip-rule="evenodd" d="M2.84703 1.25C3.7955 0.442899 5.00605 -0.000722656 6.25803 0H21.0665V6.15625C20.9942 7.52779 20.3862 8.81824 19.3704 9.75625C18.3987 10.6557 17.1073 11.1407 15.7759 11.1063H10.6436C10.4084 11.1203 10.1727 11.0867 9.95107 11.0075C9.72946 10.9283 9.5266 10.8051 9.35498 10.6456C9.18336 10.4861 9.04661 10.2935 8.95313 10.0799C8.85966 9.86619 8.81144 9.63589 8.81144 9.40313C8.81144 9.17036 8.85966 8.94006 8.95313 8.72639C9.04661 8.51272 9.18336 8.3202 9.35498 8.16067C9.5266 8.00114 9.72946 7.87797 9.95107 7.79875C10.1727 7.71953 10.4084 7.68592 10.6436 7.7H15.5987C15.9347 7.72398 16.271 7.65928 16.5733 7.5125C16.867 7.36771 17.1129 7.14325 17.2822 6.86542C17.4514 6.58759 17.537 6.26788 17.5289 5.94375V3.44375H6.23904C6.01328 3.44619 5.79023 3.49264 5.58269 3.58042C5.37515 3.6682 5.18721 3.79558 5.02963 3.95527C4.87206 4.11496 4.74796 4.3038 4.66446 4.51097C4.58096 4.71813 4.53969 4.93955 4.54304 5.1625V20.6C4.54304 21.0592 4.35836 21.4995 4.02961 21.8242C3.70087 22.1489 3.25499 22.3312 2.79007 22.3312C2.32516 22.3312 1.87929 22.1489 1.55055 21.8242C1.2218 21.4995 1.03711 21.0592 1.03711 20.6V4.75625C1.07739 4.08009 1.259 3.41948 1.5705 2.81604C1.88199 2.2126 2.31662 1.67939 2.84703 1.25ZM10.6576 14.5937H15.7899L15.7583 14.575C16.2181 14.575 16.6592 14.7554 16.9844 15.0765C17.3096 15.3977 17.4922 15.8333 17.4922 16.2875C17.4922 16.7416 17.3096 17.1772 16.9844 17.4984C16.6592 17.8195 16.2181 18 15.7583 18H12.3346V23.7437C12.3724 24.6615 12.1534 25.5719 11.7018 26.375C11.2712 27.1382 10.6506 27.7804 9.89873 28.2408C9.14685 28.7012 8.28849 28.9647 7.4048 29.0062H2.75343C2.52482 29.0129 2.29718 28.9742 2.084 28.8924C1.87081 28.8106 1.67642 28.6874 1.51236 28.53C1.34829 28.3726 1.21789 28.1843 1.12888 27.9762C1.03986 27.7682 0.994041 27.5446 0.994141 27.3187C0.994141 26.8546 1.18083 26.4095 1.51313 26.0813C1.84544 25.7531 2.29614 25.5687 2.76609 25.5687H6.72766C6.72766 25.5687 8.87298 25.725 8.87298 23.6937V16.3937C8.86158 16.1575 8.89964 15.9216 8.98479 15.7006C9.06994 15.4796 9.20035 15.2783 9.36785 15.1094C9.53535 14.9404 9.73635 14.8074 9.95827 14.7187C10.1802 14.63 10.4183 14.5874 10.6576 14.5937ZM34.9141 25.1625C34.5602 25.9827 34.0289 26.7165 33.3574 27.3125C32.7133 27.8676 31.965 28.2923 31.1551 28.5625C30.3407 28.8398 29.4852 28.9813 28.6237 28.9812C27.7194 28.9813 26.8212 28.8335 25.9658 28.5437C25.1036 28.2613 24.3044 27.8179 23.6117 27.2375C22.9061 26.639 22.3368 25.8999 21.941 25.0687C21.5026 24.1357 21.2861 23.1159 21.3081 22.0875V15.4C21.2917 15.1514 21.3346 14.9026 21.4336 14.6735C21.5325 14.4444 21.6847 14.2415 21.8777 14.0812C22.2216 13.7907 22.6592 13.6311 23.1117 13.6311C23.5642 13.6311 24.0019 13.7907 24.3457 14.0812C24.5372 14.2463 24.6872 14.453 24.7838 14.6851C24.8805 14.9173 24.9212 15.1684 24.9026 15.4187V22.1062C24.8908 22.6169 24.99 23.1242 25.1938 23.5937C25.3761 23.9989 25.6435 24.361 25.9785 24.6562C26.3097 24.9343 26.6922 25.1465 27.1049 25.2812C27.5117 25.4224 27.9394 25.4964 28.3706 25.5C28.8142 25.4969 29.2545 25.423 29.6742 25.2812C30.0981 25.1447 30.4888 24.9232 30.822 24.6307C31.1552 24.3382 31.4237 23.9809 31.6107 23.5812C31.8239 23.114 31.9298 22.6061 31.9208 22.0937V15.4062C31.9018 15.1547 31.9435 14.9023 32.0426 14.6698C32.1416 14.4372 32.2951 14.2312 32.4904 14.0687C32.8487 13.7834 33.2958 13.6289 33.7561 13.6312C34.204 13.6334 34.6376 13.7879 34.9838 14.0687C35.1741 14.2344 35.3229 14.4414 35.4184 14.6735C35.5139 14.9056 35.5536 15.1564 35.5343 15.4062V22.0937C35.5484 23.1483 35.3371 24.194 34.9141 25.1625ZM40.1985 15.4188C39.4928 16.0137 38.9214 16.7483 38.5215 17.575C38.0815 18.4967 37.8628 19.5063 37.8823 20.525V27.2125C37.866 27.4614 37.9085 27.7105 38.0062 27.9404C38.1039 28.1703 38.2543 28.3747 38.4455 28.5376C38.7894 28.828 39.227 28.9877 39.6796 28.9877C40.1321 28.9877 40.5697 28.828 40.9136 28.5376C41.1048 28.3747 41.2552 28.1703 41.3529 27.9404C41.4506 27.7105 41.4931 27.4614 41.4768 27.2125V20.5063C41.4639 19.9976 41.57 19.4928 41.7869 19.0313C41.9758 18.6319 42.2449 18.2747 42.5779 17.9813C42.9069 17.7034 43.2873 17.4912 43.6981 17.3563C44.1049 17.215 44.5325 17.1411 44.9638 17.1375C45.3948 17.1429 45.8221 17.2168 46.2294 17.3563C46.6509 17.4922 47.0397 17.712 47.3717 18.0023C47.7037 18.2926 47.9719 18.6471 48.1596 19.0438C48.3765 19.5053 48.4826 20.0101 48.4697 20.5188V27.2125C48.4491 27.4631 48.4889 27.7148 48.5857 27.9473C48.6825 28.1797 48.8335 28.3863 49.0266 28.55C49.3689 28.8332 49.8014 28.9881 50.248 28.9875C50.7106 28.9912 51.1595 28.8316 51.5136 28.5376C51.7079 28.3766 51.8612 28.1729 51.9613 27.9427C52.0613 27.7126 52.1052 27.4625 52.0895 27.2125V20.525C52.1128 19.4788 51.9122 18.4395 51.501 17.475C51.1471 16.653 50.6158 15.9171 49.9442 15.3188C49.2971 14.7645 48.5469 14.34 47.7356 14.0688C46.9216 13.789 46.0661 13.6454 45.2042 13.6438C44.2986 13.6471 43.4 13.8014 42.5463 14.1C41.6876 14.3919 40.8914 14.8391 40.1985 15.4188ZM61.816 28.9999C60.7434 29.0073 59.681 28.7945 58.6961 28.3749C56.8182 27.597 55.3219 26.126 54.5257 24.2749C54.1078 23.3418 53.8922 22.3327 53.8929 21.3124C53.8629 20.1254 54.1349 18.95 54.6839 17.8937C55.1735 16.9771 55.845 16.1672 56.6584 15.5124C57.4215 14.8958 58.2892 14.4176 59.2214 14.0999C60.0335 13.808 60.8886 13.6497 61.7527 13.6312C62.1502 13.6269 62.5464 13.6774 62.9298 13.7812C63.2455 13.8585 63.5382 14.0084 63.7841 14.2187C63.9941 14.4072 64.1381 14.6567 64.1955 14.9312C64.245 15.2612 64.1943 15.5983 64.0499 15.8999C63.9474 16.1685 63.7669 16.4011 63.531 16.5687C63.3415 16.7 63.1257 16.7895 62.8981 16.8312C62.6899 16.8726 62.4767 16.8831 62.2653 16.8624C62.1466 16.8624 62.0442 16.8523 61.9559 16.8436C61.8888 16.837 61.8299 16.8312 61.778 16.8312C61.1766 16.8249 60.5823 16.9599 60.0441 17.2249C59.5241 17.4794 59.0581 17.8294 58.6708 18.2562C58.2912 18.6807 57.9931 19.1699 57.7911 19.6999C57.5867 20.2136 57.4815 20.7605 57.481 21.3124C57.4649 21.9886 57.5899 22.6609 57.8481 23.2874C58.0749 23.8221 58.4135 24.3034 58.8417 24.6999C59.2474 25.0719 59.7224 25.3627 60.2402 25.5562C60.7559 25.7492 61.3025 25.8487 61.854 25.8499C62.3879 25.85 62.9175 25.7547 63.4171 25.5687C63.9293 25.3878 64.3972 25.1025 64.7903 24.7312C65.2122 24.3285 65.5442 23.8431 65.7649 23.3062C66.0242 22.6733 66.1512 21.9951 66.1383 21.3124V8.81242C66.1272 8.57816 66.1786 8.34513 66.2875 8.13671C66.3963 7.92828 66.5587 7.75178 66.7585 7.62492C67.1266 7.36289 67.5704 7.22483 68.0241 7.23117C68.4655 7.22934 68.8958 7.36735 69.2518 7.62492C69.436 7.75953 69.5829 7.93767 69.6791 8.14298C69.7753 8.3483 69.8177 8.57419 69.8024 8.79992V21.2999C69.8045 22.3304 69.5889 23.35 69.1696 24.2937C68.3626 26.1455 66.8546 27.6124 64.9675 28.3812C63.9698 28.7945 62.8979 29.0049 61.816 28.9999ZM72.1757 18.3312C71.7578 19.2642 71.5422 20.2734 71.5428 21.2936C71.5159 22.4803 71.7877 23.6551 72.3339 24.7124C72.8215 25.6356 73.4931 26.452 74.3083 27.1124C75.0621 27.7256 75.9189 28.2037 76.8397 28.5249C77.6521 28.815 78.5073 28.9712 79.3711 28.9874C79.7722 28.9901 80.1721 28.9418 80.5608 28.8436C80.8822 28.7663 81.1811 28.6165 81.4341 28.4061C81.6441 28.2176 81.7881 27.9681 81.8455 27.6936C81.8943 27.3616 81.8437 27.0226 81.6999 26.7187C81.5939 26.452 81.4141 26.2203 81.181 26.0499C80.9886 25.9239 80.7739 25.8348 80.5481 25.7874C80.3381 25.7599 80.1253 25.7599 79.9153 25.7874H79.4407C78.8398 25.7956 78.2455 25.6628 77.7067 25.3999C77.1868 25.1454 76.7207 24.7954 76.3334 24.3686C75.954 23.9487 75.6559 23.4636 75.4538 22.9374C75.2481 22.4154 75.143 21.86 75.1437 21.2999C75.1276 20.6237 75.2525 19.9514 75.5107 19.3249C75.7392 18.7929 76.0776 18.314 76.5043 17.9186C76.9076 17.548 77.3836 17.263 77.9029 17.0812C78.4204 16.8971 78.9666 16.804 79.5166 16.8061C80.0562 16.8056 80.5917 16.8987 81.0987 17.0812C81.6139 17.2588 82.0829 17.547 82.472 17.9249C82.8823 18.326 83.2072 18.8041 83.4276 19.3311C83.6881 19.9593 83.8152 20.6337 83.8009 21.3124V27.3874C83.7861 27.6159 83.8306 27.8444 83.9303 28.0511C84.03 28.2578 84.1815 28.436 84.3705 28.5686C84.7386 28.8307 85.1824 28.9687 85.6362 28.9624C86.0775 28.9642 86.5078 28.8262 86.8639 28.5686C87.048 28.4327 87.1949 28.2534 87.2911 28.0471C87.3872 27.8408 87.4296 27.614 87.4144 27.3874V21.3124C87.4178 20.2817 87.2022 19.2619 86.7816 18.3186C86.1702 16.9072 85.1489 15.7062 83.8469 14.8675C82.5449 14.0288 81.0204 13.5899 79.466 13.6062C78.3934 13.5987 77.331 13.8116 76.3461 14.2312C74.4682 15.009 72.9719 16.4801 72.1757 18.3312ZM90.3312 7.6251C90.6948 7.37702 91.1264 7.24414 91.5683 7.24414C92.0103 7.24414 92.4419 7.37702 92.8056 7.6251C92.989 7.75045 93.1367 7.92042 93.2342 8.11858C93.3318 8.31675 93.376 8.53641 93.3625 8.75634V21.3438C93.3477 22.0261 93.4725 22.7042 93.7295 23.3376C93.9501 23.87 94.2748 24.3543 94.6851 24.7626C95.0752 25.1378 95.544 25.4237 96.0583 25.6001C97.078 25.9802 98.2029 25.9802 99.2225 25.6001C99.7404 25.4066 100.215 25.1158 100.621 24.7438C101.047 24.3443 101.387 23.8638 101.621 23.3313C101.892 22.7081 102.024 22.0344 102.007 21.3563C102.002 20.7609 101.878 20.1724 101.64 19.6251C101.397 19.0633 101.052 18.5506 100.621 18.1126C100.183 17.6726 99.6515 17.3352 99.0643 17.1251C98.422 16.8987 97.7351 16.8238 97.0582 16.9063C96.846 16.9439 96.6279 16.9318 96.4212 16.871C96.2146 16.8102 96.0253 16.7024 95.8685 16.5563C95.5742 16.2858 95.3766 15.9284 95.3053 15.5376C95.2404 15.1535 95.3096 14.759 95.5015 14.4188C95.6091 14.2344 95.7627 14.0802 95.9477 13.9708C96.1326 13.8614 96.3428 13.8005 96.5583 13.7938C97.757 13.621 98.9799 13.7184 100.135 14.0789C101.29 14.4393 102.348 15.0534 103.228 15.8751C104.068 16.6662 104.717 17.6338 105.127 18.7063C105.504 19.7075 105.666 20.7751 105.602 21.8413C105.539 22.9076 105.252 23.9492 104.76 24.9001C104.327 25.7218 103.743 26.4571 103.039 27.0688C101.891 28.0333 100.498 28.668 99.0103 28.9039C97.5227 29.1397 95.9981 28.9676 94.6028 28.4063C92.7156 27.6355 91.2063 26.1696 90.3944 24.3189C89.9751 23.3752 89.7595 22.3556 89.7616 21.3251V8.7376C89.7497 8.51915 89.796 8.30145 89.8959 8.10623C89.9959 7.911 90.146 7.7451 90.3312 7.6251ZM109.242 7.18759C108.781 7.18314 108.333 7.3379 107.976 7.62509C107.778 7.7895 107.623 7.99855 107.524 8.23459C107.424 8.47062 107.384 8.72674 107.406 8.98134V27.2063C107.39 27.4558 107.433 27.7056 107.532 27.9357C107.631 28.1658 107.783 28.3698 107.976 28.5313C108.331 28.8244 108.779 28.9839 109.242 28.9813C109.692 28.9799 110.127 28.8204 110.469 28.5313C110.66 28.3682 110.809 28.1636 110.906 27.9337C111.002 27.7037 111.044 27.4547 111.026 27.2063V8.96259C111.046 8.71213 111.006 8.46052 110.909 8.22816C110.813 7.99579 110.662 7.78919 110.469 7.62509C110.125 7.34055 109.69 7.18555 109.242 7.18759Z" fill="#FAFAFA"/>
</svg>
